<svg xmlns="http://www.w3.org/2000/svg" fill-rule="evenodd" stroke-linecap="square" stroke-miterlimit="1.5" clip-rule="evenodd" viewBox="0 0 16 16" id="curriculum-vitae"><path fill="#e45527" fill-rule="nonzero" d="M 5,1 V 1.5 2.9863281 L 3.4960938,3 l -0.5,0.00391 0.00781,1 L 3.5039062,4 6,3.9765625 V 1.5 1 Z" clip-rule="nonzero" color="#000" font-family="sans-serif" font-weight="400" overflow="visible" style="line-height:normal;font-variant-ligatures:normal;font-variant-position:normal;font-variant-caps:normal;font-variant-numeric:normal;font-variant-alternates:normal;font-feature-settings:normal;text-indent:0;text-align:start;text-decoration-line:none;text-decoration-style:solid;text-decoration-color:#000;text-transform:none;text-orientation:mixed;shape-padding:0;isolation:auto;mix-blend-mode:normal"></path><path fill="#1c7287" fill-rule="nonzero" d="M 5.2929688,0.48242188 2.5,3.2753906 V 15 h 11 V 0.48242188 H 13 Z M 5.7070312,1.4824219 H 12.5 V 14 h -9 V 3.6894531 Z" clip-rule="nonzero" color="#000" font-family="sans-serif" font-weight="400" overflow="visible" style="line-height:normal;font-variant-ligatures:normal;font-variant-position:normal;font-variant-caps:normal;font-variant-numeric:normal;font-variant-alternates:normal;font-feature-settings:normal;text-indent:0;text-align:start;text-decoration-line:none;text-decoration-style:solid;text-decoration-color:#000;text-transform:none;text-orientation:mixed;shape-padding:0;isolation:auto;mix-blend-mode:normal"></path><path fill="#e45527" fill-rule="nonzero" d="M9 3V3.5 6h3V3zm1 1h1v1h-1zM4 5V6H4.5 7.5 8V5h-.5-3z" clip-rule="nonzero" color="#000" font-family="sans-serif" font-weight="400" overflow="visible" style="line-height:normal;font-variant-ligatures:normal;font-variant-position:normal;font-variant-caps:normal;font-variant-numeric:normal;font-variant-alternates:normal;font-feature-settings:normal;text-indent:0;text-align:start;text-decoration-line:none;text-decoration-style:solid;text-decoration-color:#000;text-transform:none;text-orientation:mixed;shape-padding:0;isolation:auto;mix-blend-mode:normal"></path><path fill="#1c7287" fill-rule="nonzero" d="M4 7.5v1h.5 7 .5v-1h-.5-7zM4 9v1h.5 7 .5V9h-.5-7zM4 10.5v1h.5 7 .5v-1h-.5-7z" clip-rule="nonzero" color="#000" font-family="sans-serif" font-weight="400" overflow="visible" style="line-height:normal;font-variant-ligatures:normal;font-variant-position:normal;font-variant-caps:normal;font-variant-numeric:normal;font-variant-alternates:normal;font-feature-settings:normal;text-indent:0;text-align:start;text-decoration-line:none;text-decoration-style:solid;text-decoration-color:#000;text-transform:none;text-orientation:mixed;shape-padding:0;isolation:auto;mix-blend-mode:normal"></path><path fill="#e45527" fill-rule="nonzero" d="m 4,12 v 1 h 0.5 7 0.5 v -1 h -0.5 -7 z" clip-rule="nonzero" color="#000" font-family="sans-serif" font-weight="400" overflow="visible" style="line-height:normal;font-variant-ligatures:normal;font-variant-position:normal;font-variant-caps:normal;font-variant-numeric:normal;font-variant-alternates:normal;font-feature-settings:normal;text-indent:0;text-align:start;text-decoration-line:none;text-decoration-style:solid;text-decoration-color:#000;text-transform:none;text-orientation:mixed;shape-padding:0;isolation:auto;mix-blend-mode:normal"></path></svg>