<svg xmlns="http://www.w3.org/2000/svg" xmlns:xlink="http://www.w3.org/1999/xlink" width="42" height="42" id="portfolio"><defs><linearGradient id="b" x1="1056.035" x2="1031.176" y1="544.13" y2="517.701" gradientTransform="translate(-1384.02 316.47) scale(1.34562)" gradientUnits="userSpaceOnUse" xlink:href="#a"></linearGradient><linearGradient id="a"><stop offset="0" stop-color="#5a5a5a"></stop><stop offset="1" stop-color="#656e85"></stop></linearGradient></defs><g transform="translate(0 -1010.362)"><rect width="42" height="42" y="1010.362" fill="url(#b)" rx="8.876" ry="8.876"></rect><path fill="#fff" style="line-height:normal;text-indent:0;text-align:start;text-decoration-line:none;text-decoration-style:solid;text-decoration-color:#000;text-transform:none;block-progression:tb;isolation:auto;mix-blend-mode:normal" d="M18.75 1020.362c-1.518 0-2.75 1.253-2.75 2.78v.22H9c-1.653 0-3 1.347-3 3v14.5c0 .417.193.775.459 1.041.266.266.624.46 1.041.46h27c.417 0 .775-.194 1.041-.46.266-.266.459-.624.459-1.04v-14.5c0-1.654-1.347-3-3-3h-7v-.222c0-1.526-1.232-2.779-2.75-2.779h-4.5zm0 1h4.5c.975 0 1.75.783 1.75 1.78v.22h-8v-.22c0-.997.775-1.78 1.75-1.78zm-9.75 3h2v6a.5.5 0 0 0-.5.5v.5H9c-1.117 0-2-.883-2-2v-3c0-1.116.883-2 2-2zm3 0h2v6h-2v-6zm3 0h12v6a.5.5 0 0 0-.5.5v.5h-11v-.5a.5.5 0 0 0-.5-.5v-6zm13 0h2v6h-2v-6zm3 0h2c1.117 0 2 .884 2 2v3c0 1.117-.883 2-2 2h-1.5v-.5a.5.5 0 0 0-.5-.5v-6zm-19.5 7h3v2h-1v-1h-1v1h-1v-2zm16 0h3v2h-1v-1h-1v1h-1v-2zm-20.5.219c.532.48 1.23.781 2 .781h1.5v1.5a.5.5 0 0 0 .5.5v7H7.5a.544.544 0 0 1-.334-.166.544.544 0 0 1-.166-.334v-9.281zm28 0V1040.862a.545.545 0 0 1-.166.334.544.544 0 0 1-.334.166H31v-7a.5.5 0 0 0 .5-.5v-1.5H33c.77 0 1.468-.3 2-.781zm-19.5.781h11v1.5a.5.5 0 0 0 .5.5v7H15v-7a.5.5 0 0 0 .5-.5v-1.5zm-3.5 2h2v7h-2v-7zm16 0h2v7h-2v-7z" color="#000" font-family="sans-serif" font-weight="400" overflow="visible"></path></g></svg>